<svg xmlns="http://www.w3.org/2000/svg" xmlns:xlink="http://www.w3.org/1999/xlink" width="176" zoomAndPan="magnify" viewBox="0 0 132 129.750003" height="173" preserveAspectRatio="xMidYMid meet" version="1.0"><defs><g/><clipPath id="039d751af9"><path d="M 0.125 8.753906 L 131.871094 8.753906 L 131.871094 129.269531 L 0.125 129.269531 Z M 0.125 8.753906 " clip-rule="nonzero"/></clipPath><clipPath id="7617b507de"><rect x="0" width="28" y="0" height="32"/></clipPath></defs><path fill="#5ab4a6" d="M 99.015625 82.917969 C 98.964844 84.628906 98.296875 85.683594 96.902344 86.304688 C 95.464844 86.945312 94.363281 86.382812 93.453125 85.355469 C 92.9375 84.773438 92.609375 84.015625 92.21875 83.324219 C 91.242188 81.601562 89.820312 80.398438 87.8125 80.410156 C 85.867188 80.421875 84.261719 81.339844 83.296875 83.152344 C 83.007812 83.695312 82.722656 84.246094 82.375 84.75 C 81.269531 86.371094 79.742188 86.917969 78.289062 86.253906 C 76.683594 85.515625 75.992188 83.984375 76.535156 82.074219 C 77.6875 78 80.4375 75.453125 84.421875 74.261719 C 90.289062 72.507812 96.921875 76.003906 98.683594 81.691406 C 98.828125 82.15625 98.9375 82.636719 99.015625 82.917969 Z M 99.015625 82.917969 " fill-opacity="1" fill-rule="nonzero"/><g clip-path="url(#039d751af9)"><path fill="#5ab4a6" d="M 131.6875 77.804688 C 131.640625 72.300781 128.546875 68.433594 123.148438 67.28125 C 121.972656 67.03125 121.53125 66.519531 121.261719 65.476562 C 117.511719 50.773438 102.597656 41.078125 89.777344 41.390625 C 83.054688 41.558594 76.320312 41.421875 69.3125 41.421875 C 69.3125 37.222656 69.28125 33.273438 69.359375 29.328125 C 69.367188 28.898438 69.925781 28.328125 70.371094 28.082031 C 73.945312 26.125 76.347656 22.117188 75.882812 18.527344 C 75.292969 13.972656 72.917969 10.703125 68.484375 9.25 C 67.632812 8.96875 66.773438 8.820312 65.925781 8.789062 C 65.074219 8.820312 64.214844 8.96875 63.363281 9.25 C 58.929688 10.703125 56.558594 13.972656 55.964844 18.527344 C 55.5 22.117188 57.902344 26.125 61.476562 28.082031 C 61.921875 28.328125 62.480469 28.898438 62.488281 29.328125 C 62.566406 33.273438 62.535156 37.222656 62.535156 41.421875 C 55.527344 41.421875 48.792969 41.558594 42.070312 41.390625 C 29.25 41.078125 14.335938 50.773438 10.585938 65.476562 C 10.320312 66.519531 9.875 67.03125 8.699219 67.28125 C 3.300781 68.433594 0.207031 72.300781 0.160156 77.804688 C 0.125 82.316406 0.140625 86.832031 0.199219 91.34375 C 0.261719 96.289062 3.464844 100.378906 8.292969 101.5625 C 9.5 101.855469 9.976562 102.382812 10.25 103.566406 C 13.683594 118.476562 27.46875 129.433594 42.742188 129.4375 C 50.46875 129.441406 58.195312 129.453125 65.925781 129.453125 C 73.652344 129.453125 81.378906 129.441406 89.105469 129.4375 C 104.378906 129.433594 118.164062 118.476562 121.597656 103.566406 C 121.871094 102.382812 122.347656 101.855469 123.554688 101.5625 C 128.382812 100.378906 131.585938 96.289062 131.648438 91.34375 C 131.707031 86.832031 131.722656 82.316406 131.6875 77.804688 Z M 115.636719 94.054688 C 115.566406 96.742188 115.226562 99.488281 114.546875 102.089844 C 111.589844 113.445312 102.171875 121.421875 90.472656 122.011719 C 82.308594 122.417969 74.109375 122.09375 65.925781 122.089844 C 57.738281 122.09375 49.539062 122.417969 41.375 122.011719 C 29.675781 121.421875 20.257812 113.445312 17.300781 102.089844 C 16.621094 99.488281 16.28125 96.742188 16.210938 94.054688 C 16.054688 87.933594 16.125 81.808594 16.171875 75.6875 C 16.292969 60.289062 28.09375 48.570312 43.496094 48.550781 C 50.972656 48.542969 58.449219 48.539062 65.925781 48.539062 C 73.398438 48.539062 80.875 48.542969 88.351562 48.550781 C 103.753906 48.570312 115.554688 60.289062 115.675781 75.6875 C 115.722656 81.808594 115.792969 87.933594 115.636719 94.054688 Z M 115.636719 94.054688 " fill-opacity="1" fill-rule="nonzero"/></g><path fill="#5ab4a6" d="M 81.585938 98.414062 C 80.117188 97.777344 78.464844 98.269531 77.316406 99.695312 C 77.238281 99.789062 77.15625 99.882812 77.09375 99.988281 C 74.84375 103.734375 70.476562 105.921875 65.925781 106.03125 C 61.371094 105.921875 57.003906 103.734375 54.753906 99.988281 C 54.691406 99.882812 54.609375 99.789062 54.53125 99.695312 C 53.382812 98.269531 51.730469 97.777344 50.261719 98.414062 C 48.75 99.070312 47.875 100.773438 48.46875 102.601562 C 48.875 103.84375 49.613281 105.066406 50.480469 106.058594 C 54.578125 110.730469 59.886719 112.726562 65.925781 112.933594 C 71.960938 112.726562 77.269531 110.730469 81.367188 106.058594 C 82.234375 105.066406 82.976562 103.84375 83.378906 102.601562 C 83.972656 100.773438 83.097656 99.070312 81.585938 98.414062 Z M 81.585938 98.414062 " fill-opacity="1" fill-rule="nonzero"/><path fill="#5ab4a6" d="M 53.632812 80.335938 C 53.683594 74.902344 49.5 70.621094 44.121094 70.597656 C 39.015625 70.574219 34.730469 74.875 34.695312 80.046875 C 34.65625 85.632812 38.640625 89.761719 44.085938 89.789062 C 49.4375 89.8125 53.585938 85.703125 53.632812 80.335938 Z M 53.632812 80.335938 " fill-opacity="1" fill-rule="nonzero"/><g transform="matrix(1, 0, 0, 1, 21, 10)"><g clip-path="url(#7617b507de)"><g fill="#5ab4a6" fill-opacity="1"><g transform="translate(0.263699, 25.144797)"><g><path d="M 12.484375 -4.21875 C 12.484375 -3.613281 12.378906 -3.066406 12.171875 -2.578125 C 11.960938 -2.078125 11.664062 -1.628906 11.28125 -1.234375 C 10.90625 -0.867188 10.453125 -0.570312 9.921875 -0.34375 C 9.359375 -0.113281 8.804688 0 8.265625 0 L 5.453125 0 C 4.910156 0 4.363281 -0.113281 3.8125 -0.34375 C 3.269531 -0.570312 2.828125 -0.867188 2.484375 -1.234375 C 2.109375 -1.585938 1.804688 -2.035156 1.578125 -2.578125 C 1.347656 -3.128906 1.234375 -3.675781 1.234375 -4.21875 L 1.234375 -16.859375 C 1.234375 -17.390625 1.347656 -17.9375 1.578125 -18.5 C 1.804688 -19.03125 2.109375 -19.484375 2.484375 -19.859375 C 2.867188 -20.253906 3.3125 -20.554688 3.8125 -20.765625 C 4.3125 -20.960938 4.859375 -21.0625 5.453125 -21.0625 L 8.265625 -21.0625 C 8.867188 -21.0625 9.421875 -20.960938 9.921875 -20.765625 C 10.179688 -20.660156 10.421875 -20.53125 10.640625 -20.375 C 10.859375 -20.21875 11.070312 -20.046875 11.28125 -19.859375 C 11.46875 -19.648438 11.632812 -19.4375 11.78125 -19.21875 C 11.9375 -19.007812 12.066406 -18.769531 12.171875 -18.5 C 12.378906 -18 12.484375 -17.453125 12.484375 -16.859375 L 12.484375 -14.0625 L 8.265625 -14.0625 L 8.265625 -16.859375 L 5.453125 -16.859375 L 5.453125 -4.21875 L 8.265625 -4.21875 L 8.265625 -8.421875 L 6.90625 -8.421875 L 6.90625 -12.640625 L 12.484375 -12.640625 Z M 12.484375 -4.21875 "/></g></g></g><g fill="#5ab4a6" fill-opacity="1"><g transform="translate(13.991456, 25.144797)"><g><path d="M 11.859375 -4.21875 C 11.859375 -3.613281 11.757812 -3.066406 11.5625 -2.578125 C 11.351562 -2.078125 11.050781 -1.628906 10.65625 -1.234375 C 10.28125 -0.867188 9.828125 -0.570312 9.296875 -0.34375 C 8.734375 -0.113281 8.1875 0 7.65625 0 L 4.828125 0 C 4.296875 0 3.75 -0.113281 3.1875 -0.34375 C 2.65625 -0.570312 2.210938 -0.867188 1.859375 -1.234375 C 1.484375 -1.585938 1.179688 -2.035156 0.953125 -2.578125 C 0.734375 -3.128906 0.625 -3.675781 0.625 -4.21875 L 0.625 -7.0625 L 4.828125 -7.0625 L 4.828125 -4.21875 L 7.65625 -4.21875 L 7.65625 -5.828125 L 1.703125 -12.421875 C 1.328125 -12.859375 1.0625 -13.300781 0.90625 -13.75 C 0.71875 -14.226562 0.625 -14.726562 0.625 -15.25 L 0.625 -16.859375 C 0.625 -17.390625 0.734375 -17.9375 0.953125 -18.5 C 1.179688 -19.03125 1.484375 -19.484375 1.859375 -19.859375 C 2.253906 -20.253906 2.695312 -20.554688 3.1875 -20.765625 C 3.6875 -20.960938 4.234375 -21.0625 4.828125 -21.0625 L 7.65625 -21.0625 C 8.25 -21.0625 8.796875 -20.960938 9.296875 -20.765625 C 9.566406 -20.660156 9.804688 -20.53125 10.015625 -20.375 C 10.234375 -20.21875 10.445312 -20.046875 10.65625 -19.859375 C 10.84375 -19.648438 11.015625 -19.4375 11.171875 -19.21875 C 11.328125 -19.007812 11.457031 -18.769531 11.5625 -18.5 C 11.757812 -18 11.859375 -17.453125 11.859375 -16.859375 L 11.859375 -14.0625 L 7.65625 -14.0625 L 7.65625 -16.859375 L 4.828125 -16.859375 L 4.828125 -15.25 L 10.78125 -8.609375 C 11.132812 -8.179688 11.40625 -7.75 11.59375 -7.3125 C 11.769531 -6.851562 11.859375 -6.359375 11.859375 -5.828125 Z M 11.859375 -4.21875 "/></g></g></g></g></g></svg>