<svg xmlns="http://www.w3.org/2000/svg" xmlns:xlink="http://www.w3.org/1999/xlink" viewBox="0 50 754 402" preserveAspectRatio="xMidYMid meet"><defs><g/><clipPath id="e81a5a0cdc"><path d="M 0.46875 50 L 754 50 L 754 452 L 0.46875 452 Z M 0.46875 50 " clip-rule="nonzero"/></clipPath><clipPath id="3c3b029b20"><path d="M 0.46875 17.394531 L 400.589844 17.394531 L 400.589844 384.476562 L 0.46875 384.476562 Z M 0.46875 17.394531 " clip-rule="nonzero"/></clipPath><clipPath id="4c324f4fc6"><path d="M 492 0.804688 L 753.425781 0.804688 L 753.425781 401.246094 L 492 401.246094 Z M 492 0.804688 " clip-rule="nonzero"/></clipPath><clipPath id="eab6f437ad"><rect x="0" width="262" y="0" height="402"/></clipPath><clipPath id="8f21144b93"><rect x="0" width="754" y="0" height="402"/></clipPath></defs><g clip-path="url(#e81a5a0cdc)"><g transform="matrix(1, 0, 0, 1, 0.000000000000000056, 50)"><g clip-path="url(#8f21144b93)"><path fill="#24c4ac" d="M 301.191406 242.9375 C 301.046875 248.136719 299.011719 251.339844 294.769531 253.234375 C 290.40625 255.179688 287.042969 253.46875 284.28125 250.347656 C 282.707031 248.570312 281.71875 246.265625 280.523438 244.164062 C 277.550781 238.929688 273.234375 235.265625 267.132812 235.304688 C 261.207031 235.347656 256.328125 238.128906 253.398438 243.644531 C 252.519531 245.296875 251.648438 246.96875 250.597656 248.507812 C 247.230469 253.441406 242.585938 255.101562 238.164062 253.074219 C 233.285156 250.835938 231.1875 246.179688 232.828125 240.371094 C 236.335938 227.976562 244.703125 220.226562 256.816406 216.605469 C 274.65625 211.277344 294.832031 221.910156 300.191406 239.199219 C 300.632812 240.621094 300.964844 242.074219 301.191406 242.9375 Z M 301.191406 242.9375 " fill-opacity="1" fill-rule="nonzero"/><g clip-path="url(#3c3b029b20)"><path fill="#24c4ac" d="M 400.550781 227.378906 C 400.417969 210.644531 391 198.878906 374.585938 195.382812 C 371.011719 194.621094 369.664062 193.070312 368.851562 189.890625 C 357.445312 145.183594 312.09375 115.695312 273.109375 116.648438 C 252.65625 117.152344 232.179688 116.738281 210.871094 116.738281 C 210.871094 103.96875 210.773438 91.960938 211.007812 79.957031 C 211.035156 78.652344 212.734375 76.917969 214.089844 76.175781 C 224.953125 70.214844 232.265625 58.027344 230.847656 47.109375 C 229.046875 33.265625 221.832031 23.320312 208.347656 18.898438 C 205.753906 18.050781 203.144531 17.601562 200.5625 17.503906 C 197.980469 17.601562 195.367188 18.050781 192.777344 18.898438 C 179.292969 23.320312 172.074219 33.265625 170.277344 47.109375 C 168.855469 58.027344 176.171875 70.214844 187.035156 76.175781 C 188.390625 76.917969 190.089844 78.652344 190.117188 79.957031 C 190.351562 91.960938 190.253906 103.96875 190.253906 116.738281 C 168.945312 116.738281 148.46875 117.152344 128.015625 116.648438 C 89.03125 115.695312 43.679688 145.183594 32.273438 189.890625 C 31.460938 193.070312 30.109375 194.621094 26.535156 195.382812 C 10.121094 198.878906 0.707031 210.644531 0.574219 227.378906 C 0.464844 241.101562 0.511719 254.832031 0.683594 268.554688 C 0.871094 283.597656 10.621094 296.03125 25.304688 299.628906 C 28.976562 300.53125 30.425781 302.125 31.253906 305.730469 C 41.695312 351.074219 83.621094 384.390625 130.066406 384.40625 C 153.566406 384.417969 177.0625 384.449219 200.5625 384.449219 C 224.058594 384.449219 247.558594 384.417969 271.058594 384.40625 C 317.503906 384.390625 359.429688 351.074219 369.871094 305.730469 C 370.699219 302.125 372.148438 300.53125 375.820312 299.628906 C 390.503906 296.03125 400.25 283.597656 400.441406 268.554688 C 400.613281 254.832031 400.660156 241.101562 400.550781 227.378906 Z M 351.738281 276.796875 C 351.53125 284.976562 350.492188 293.328125 348.433594 301.238281 C 339.433594 335.769531 310.800781 360.03125 275.222656 361.816406 C 250.394531 363.058594 225.453125 362.066406 200.5625 362.058594 C 175.671875 362.066406 150.730469 363.058594 125.902344 361.816406 C 90.324219 360.03125 61.691406 335.769531 52.691406 301.238281 C 50.628906 293.328125 49.59375 284.976562 49.382812 276.796875 C 48.910156 258.191406 49.121094 239.5625 49.265625 220.945312 C 49.628906 174.113281 85.515625 138.480469 132.363281 138.421875 C 155.09375 138.394531 177.828125 138.382812 200.5625 138.378906 C 223.296875 138.382812 246.03125 138.394531 268.761719 138.421875 C 315.609375 138.480469 351.496094 174.113281 351.859375 220.945312 C 352.003906 239.5625 352.214844 258.191406 351.738281 276.796875 Z M 351.738281 276.796875 " fill-opacity="1" fill-rule="nonzero"/></g><path fill="#24c4ac" d="M 248.1875 290.058594 C 243.726562 288.117188 238.699219 289.625 235.203125 293.953125 C 234.96875 294.242188 234.71875 294.53125 234.527344 294.847656 C 227.691406 306.242188 214.40625 312.890625 200.5625 313.226562 C 186.71875 312.890625 173.433594 306.242188 166.597656 294.847656 C 166.40625 294.53125 166.15625 294.242188 165.921875 293.953125 C 162.425781 289.625 157.394531 288.117188 152.933594 290.058594 C 148.335938 292.058594 145.671875 297.230469 147.476562 302.789062 C 148.707031 306.570312 150.960938 310.292969 153.597656 313.300781 C 166.0625 327.507812 182.199219 333.589844 200.5625 334.207031 C 218.925781 333.589844 235.0625 327.507812 247.527344 313.300781 C 250.164062 310.292969 252.414062 306.570312 253.644531 302.789062 C 255.453125 297.230469 252.785156 292.058594 248.1875 290.058594 Z M 248.1875 290.058594 " fill-opacity="1" fill-rule="nonzero"/><path fill="#24c4ac" d="M 163.1875 235.078125 C 163.335938 218.558594 150.613281 205.535156 134.253906 205.460938 C 118.738281 205.390625 105.695312 218.46875 105.589844 234.203125 C 105.476562 251.1875 117.589844 263.746094 134.152344 263.824219 C 150.425781 263.898438 163.039062 251.410156 163.1875 235.078125 Z M 163.1875 235.078125 " fill-opacity="1" fill-rule="nonzero"/><g clip-path="url(#4c324f4fc6)"><g transform="matrix(1, 0, 0, 1, 492, -0.000000000000106581)"><g clip-path="url(#eab6f437ad)"><g fill="#ffffff" fill-opacity="1"><g transform="translate(0.50165, 122.469923)"><g><path d="M 61.125 -20.625 C 61.125 -17.695312 60.613281 -15.019531 59.59375 -12.59375 C 58.582031 -10.164062 57.117188 -7.988281 55.203125 -6.0625 C 53.378906 -4.25 51.15625 -2.785156 48.53125 -1.671875 C 45.800781 -0.554688 43.125 0 40.5 0 L 26.6875 0 C 24.0625 0 21.382812 -0.554688 18.65625 -1.671875 C 16.019531 -2.785156 13.84375 -4.25 12.125 -6.0625 C 10.3125 -7.78125 8.847656 -9.957031 7.734375 -12.59375 C 6.617188 -15.320312 6.0625 -18 6.0625 -20.625 L 6.0625 -82.5 C 6.0625 -85.125 6.617188 -87.800781 7.734375 -90.53125 C 8.847656 -93.164062 10.3125 -95.394531 12.125 -97.21875 C 14.050781 -99.132812 16.226562 -100.597656 18.65625 -101.609375 C 21.082031 -102.617188 23.757812 -103.125 26.6875 -103.125 L 40.5 -103.125 C 43.425781 -103.125 46.101562 -102.617188 48.53125 -101.609375 C 49.84375 -101.097656 51.03125 -100.460938 52.09375 -99.703125 C 53.15625 -98.953125 54.191406 -98.125 55.203125 -97.21875 C 56.109375 -96.195312 56.941406 -95.15625 57.703125 -94.09375 C 58.460938 -93.039062 59.09375 -91.851562 59.59375 -90.53125 C 60.613281 -88.113281 61.125 -85.4375 61.125 -82.5 L 61.125 -68.859375 L 40.5 -68.859375 L 40.5 -82.5 L 26.6875 -82.5 L 26.6875 -20.625 L 40.5 -20.625 L 40.5 -41.25 L 33.8125 -41.25 L 33.8125 -61.875 L 61.125 -61.875 Z M 61.125 -20.625 "/></g></g></g><g fill="#ffffff" fill-opacity="1"><g transform="translate(67.679791, 122.469923)"><g><path d="M 58.078125 -20.625 C 58.078125 -17.695312 57.570312 -15.019531 56.5625 -12.59375 C 55.550781 -10.164062 54.085938 -7.988281 52.171875 -6.0625 C 50.347656 -4.25 48.125 -2.785156 45.5 -1.671875 C 42.769531 -0.554688 40.085938 0 37.453125 0 L 23.65625 0 C 21.03125 0 18.351562 -0.554688 15.625 -1.671875 C 12.988281 -2.785156 10.8125 -4.25 9.09375 -6.0625 C 7.28125 -7.78125 5.816406 -9.957031 4.703125 -12.59375 C 3.585938 -15.320312 3.03125 -18 3.03125 -20.625 L 3.03125 -34.578125 L 23.65625 -34.578125 L 23.65625 -20.625 L 37.453125 -20.625 L 37.453125 -28.515625 L 8.34375 -60.8125 C 6.519531 -62.9375 5.203125 -65.109375 4.390625 -67.328125 C 3.484375 -69.660156 3.03125 -72.085938 3.03125 -74.609375 L 3.03125 -82.5 C 3.03125 -85.125 3.585938 -87.800781 4.703125 -90.53125 C 5.816406 -93.164062 7.28125 -95.394531 9.09375 -97.21875 C 11.019531 -99.132812 13.195312 -100.597656 15.625 -101.609375 C 18.050781 -102.617188 20.726562 -103.125 23.65625 -103.125 L 37.453125 -103.125 C 40.390625 -103.125 43.070312 -102.617188 45.5 -101.609375 C 46.8125 -101.097656 48 -100.460938 49.0625 -99.703125 C 50.125 -98.953125 51.160156 -98.125 52.171875 -97.21875 C 53.078125 -96.195312 53.910156 -95.15625 54.671875 -94.09375 C 55.429688 -93.039062 56.0625 -91.851562 56.5625 -90.53125 C 57.570312 -88.113281 58.078125 -85.4375 58.078125 -82.5 L 58.078125 -68.859375 L 37.453125 -68.859375 L 37.453125 -82.5 L 23.65625 -82.5 L 23.65625 -74.609375 L 52.78125 -42.15625 C 54.5 -40.03125 55.8125 -37.910156 56.71875 -35.796875 C 57.625 -33.566406 58.078125 -31.140625 58.078125 -28.515625 Z M 58.078125 -20.625 "/></g></g></g><g fill="#ffffff" fill-opacity="1"><g transform="translate(128.792186, 122.469923)"><g><path d="M 41.25 -82.5 L 41.25 0 L 20.625 0 L 20.625 -82.5 L 4.546875 -82.5 L 4.546875 -103.125 L 57.015625 -103.125 L 57.015625 -82.5 Z M 41.25 -82.5 "/></g></g></g><g fill="#24c4ac" fill-opacity="1"><g transform="translate(0.50165, 246.570758)"><g><path d="M 60.96875 -20.46875 C 60.96875 -17.539062 60.460938 -14.914062 59.453125 -12.59375 C 58.441406 -10.164062 56.972656 -7.988281 55.046875 -6.0625 C 53.234375 -4.25 51.007812 -2.785156 48.375 -1.671875 C 45.644531 -0.554688 42.96875 0 40.34375 0 L 26.6875 0 C 24.0625 0 21.382812 -0.554688 18.65625 -1.671875 C 16.019531 -2.785156 13.84375 -4.25 12.125 -6.0625 C 10.3125 -7.78125 8.847656 -9.957031 7.734375 -12.59375 C 6.617188 -15.113281 6.0625 -17.738281 6.0625 -20.46875 L 6.0625 -82.5 C 6.0625 -85.125 6.617188 -87.800781 7.734375 -90.53125 C 8.847656 -93.164062 10.3125 -95.394531 12.125 -97.21875 C 14.050781 -99.132812 16.226562 -100.597656 18.65625 -101.609375 C 21.082031 -102.617188 23.757812 -103.125 26.6875 -103.125 L 40.34375 -103.125 C 43.269531 -103.125 45.945312 -102.617188 48.375 -101.609375 C 49.6875 -101.097656 50.875 -100.460938 51.9375 -99.703125 C 53 -98.953125 54.035156 -98.125 55.046875 -97.21875 C 55.960938 -96.195312 56.796875 -95.15625 57.546875 -94.09375 C 58.304688 -93.039062 58.941406 -91.851562 59.453125 -90.53125 C 60.460938 -88.113281 60.96875 -85.4375 60.96875 -82.5 L 60.96875 -68.703125 L 40.34375 -68.703125 L 40.34375 -82.5 L 26.6875 -82.5 L 26.6875 -20.46875 L 40.34375 -20.46875 L 40.34375 -34.28125 L 60.96875 -34.28125 Z M 60.96875 -20.46875 "/></g></g></g><g fill="#24c4ac" fill-opacity="1"><g transform="translate(66.011708, 246.570758)"><g><path d="M 61.265625 -20.46875 C 61.265625 -17.539062 60.757812 -14.914062 59.75 -12.59375 C 58.738281 -10.164062 57.273438 -7.988281 55.359375 -6.0625 C 53.535156 -4.25 51.3125 -2.785156 48.6875 -1.671875 C 45.957031 -0.554688 43.273438 0 40.640625 0 L 26.546875 0 C 23.804688 0 21.175781 -0.554688 18.65625 -1.671875 C 16.019531 -2.785156 13.84375 -4.25 12.125 -6.0625 C 10.3125 -7.78125 8.847656 -9.957031 7.734375 -12.59375 C 6.617188 -15.113281 6.0625 -17.738281 6.0625 -20.46875 L 6.0625 -82.5 C 6.0625 -85.125 6.617188 -87.800781 7.734375 -90.53125 C 8.847656 -93.164062 10.3125 -95.394531 12.125 -97.21875 C 14.050781 -99.132812 16.226562 -100.597656 18.65625 -101.609375 C 20.976562 -102.617188 23.609375 -103.125 26.546875 -103.125 L 40.640625 -103.125 C 43.578125 -103.125 46.257812 -102.617188 48.6875 -101.609375 C 50 -101.097656 51.1875 -100.460938 52.25 -99.703125 C 53.3125 -98.953125 54.347656 -98.125 55.359375 -97.21875 C 56.265625 -96.195312 57.097656 -95.15625 57.859375 -94.09375 C 58.617188 -93.039062 59.25 -91.851562 59.75 -90.53125 C 60.757812 -88.113281 61.265625 -85.4375 61.265625 -82.5 Z M 26.6875 -20.46875 L 40.640625 -20.46875 L 40.640625 -82.5 L 26.6875 -82.5 Z M 26.6875 -20.46875 "/></g></g></g><g fill="#24c4ac" fill-opacity="1"><g transform="translate(133.341494, 246.570758)"><g><path d="M 60.96875 -20.46875 C 60.96875 -17.539062 60.460938 -14.914062 59.453125 -12.59375 C 58.441406 -10.164062 56.972656 -7.988281 55.046875 -6.0625 C 53.234375 -4.25 51.007812 -2.785156 48.375 -1.671875 C 45.644531 -0.554688 42.96875 0 40.34375 0 L 12.28125 0 C 10.5625 0 9.09375 -0.601562 7.875 -1.8125 C 6.664062 -3.03125 6.0625 -4.5 6.0625 -6.21875 L 6.0625 -96.90625 C 6.0625 -98.625 6.664062 -100.085938 7.875 -101.296875 C 9.09375 -102.515625 10.5625 -103.125 12.28125 -103.125 L 40.34375 -103.125 C 43.269531 -103.125 45.945312 -102.617188 48.375 -101.609375 C 49.6875 -101.097656 50.875 -100.460938 51.9375 -99.703125 C 53 -98.953125 54.035156 -98.125 55.046875 -97.21875 C 55.960938 -96.195312 56.796875 -95.15625 57.546875 -94.09375 C 58.304688 -93.039062 58.941406 -91.851562 59.453125 -90.53125 C 60.460938 -88.113281 60.96875 -85.4375 60.96875 -82.5 Z M 26.6875 -20.46875 L 40.34375 -20.46875 L 40.34375 -82.5 L 26.6875 -82.5 Z M 26.6875 -20.46875 "/></g></g></g><g fill="#24c4ac" fill-opacity="1"><g transform="translate(200.36799, 246.570758)"><g><path d="M 54.59375 -20.625 L 54.59375 0 L 12.28125 0 C 10.5625 0 9.09375 -0.601562 7.875 -1.8125 C 6.664062 -3.03125 6.0625 -4.5 6.0625 -6.21875 L 6.0625 -96.90625 C 6.0625 -98.625 6.664062 -100.085938 7.875 -101.296875 C 9.09375 -102.515625 10.5625 -103.125 12.28125 -103.125 L 54.59375 -103.125 L 54.59375 -82.5 L 26.6875 -82.5 L 26.6875 -61.875 L 54.59375 -61.875 L 54.59375 -41.25 L 26.6875 -41.25 L 26.6875 -20.625 Z M 54.59375 -20.625 "/></g></g></g><g fill="#24c4ac" fill-opacity="1"><g transform="translate(0.50165, 370.671593)"><g><path d="M 50.203125 -20.625 L 50.203125 0 L 12.28125 0 C 10.5625 0 9.09375 -0.601562 7.875 -1.8125 C 6.664062 -3.03125 6.0625 -4.5 6.0625 -6.21875 L 6.0625 -103.125 L 26.6875 -103.125 L 26.6875 -20.625 Z M 50.203125 -20.625 "/></g></g></g><g fill="#24c4ac" fill-opacity="1"><g transform="translate(55.245009, 370.671593)"><g><path d="M 60.96875 -82.65625 L 60.96875 0 L 40.34375 0 L 40.34375 -41.25 L 26.6875 -41.25 L 26.6875 0 L 6.0625 0 L 6.0625 -82.65625 C 6.0625 -85.382812 6.617188 -88.007812 7.734375 -90.53125 C 8.847656 -93.164062 10.3125 -95.34375 12.125 -97.0625 C 13.84375 -98.882812 16.019531 -100.347656 18.65625 -101.453125 C 21.382812 -102.566406 24.0625 -103.125 26.6875 -103.125 L 40.34375 -103.125 C 42.96875 -103.125 45.644531 -102.566406 48.375 -101.453125 C 51.007812 -100.441406 53.234375 -98.976562 55.046875 -97.0625 C 56.972656 -95.132812 58.441406 -92.957031 59.453125 -90.53125 C 60.460938 -88.207031 60.96875 -85.582031 60.96875 -82.65625 Z M 26.6875 -61.875 L 40.34375 -61.875 L 40.34375 -82.65625 L 26.6875 -82.65625 Z M 26.6875 -61.875 "/></g></g></g><g fill="#24c4ac" fill-opacity="1"><g transform="translate(122.271505, 370.671593)"><g><path d="M 60.96875 -20.46875 C 60.96875 -17.539062 60.460938 -14.914062 59.453125 -12.59375 C 58.441406 -10.164062 56.972656 -7.988281 55.046875 -6.0625 C 53.234375 -4.25 51.007812 -2.785156 48.375 -1.671875 C 45.644531 -0.554688 42.96875 0 40.34375 0 L 12.28125 0 C 10.5625 0 9.09375 -0.601562 7.875 -1.8125 C 6.664062 -3.03125 6.0625 -4.5 6.0625 -6.21875 L 6.0625 -96.90625 C 6.0625 -98.625 6.664062 -100.085938 7.875 -101.296875 C 9.09375 -102.515625 10.5625 -103.125 12.28125 -103.125 L 40.34375 -103.125 C 43.269531 -103.125 45.945312 -102.617188 48.375 -101.609375 C 49.6875 -101.097656 50.875 -100.460938 51.9375 -99.703125 C 53 -98.953125 54.035156 -98.125 55.046875 -97.21875 C 55.960938 -96.195312 56.796875 -95.15625 57.546875 -94.09375 C 58.304688 -93.039062 58.941406 -91.851562 59.453125 -90.53125 C 60.460938 -88.113281 60.96875 -85.4375 60.96875 -82.5 L 60.96875 -64.90625 C 60.96875 -61.675781 60.207031 -58.894531 58.6875 -56.5625 C 57.070312 -54.132812 54.644531 -52.46875 51.40625 -51.5625 C 54.34375 -50.445312 56.671875 -48.726562 58.390625 -46.40625 C 60.109375 -44.082031 60.96875 -41.300781 60.96875 -38.0625 Z M 26.6875 -20.46875 L 40.34375 -20.46875 L 40.34375 -41.09375 L 26.6875 -41.09375 Z M 26.6875 -61.875 L 40.34375 -61.875 L 40.34375 -82.5 L 26.6875 -82.5 Z M 26.6875 -61.875 "/></g></g></g></g></g></g></g></g></g></svg>