<svg xmlns="http://www.w3.org/2000/svg" xmlns:xlink="http://www.w3.org/1999/xlink" width="1518" zoomAndPan="magnify" viewBox="0 0 1138.5 308.999992" height="412" preserveAspectRatio="xMidYMid meet" version="1.0"><defs><g/><clipPath id="4a013a80d7"><path d="M 0 0.0664062 L 1082 0.0664062 L 1082 272 L 0 272 Z M 0 0.0664062 " clip-rule="nonzero"/></clipPath><clipPath id="8c52ff87ae"><path d="M 0 0.0664062 L 295.21875 0.0664062 L 295.21875 271 L 0 271 Z M 0 0.0664062 " clip-rule="nonzero"/></clipPath><clipPath id="d90b85fd62"><path d="M 343 97 L 1081.683594 97 L 1081.683594 256 L 343 256 Z M 343 97 " clip-rule="nonzero"/></clipPath><clipPath id="ece3ab6e43"><rect x="0" width="739" y="0" height="159"/></clipPath><clipPath id="33b04ee1a9"><rect x="0" width="1082" y="0" height="272"/></clipPath></defs><g clip-path="url(#4a013a80d7)"><g transform="matrix(1, 0, 0, 1, 0, -0.000000000000020456)"><g clip-path="url(#33b04ee1a9)"><path fill="#24c4ac" d="M 221.914062 166.496094 C 221.804688 170.335938 220.304688 172.699219 217.171875 174.097656 C 213.949219 175.535156 211.472656 174.269531 209.433594 171.96875 C 208.269531 170.65625 207.539062 168.953125 206.660156 167.402344 C 204.464844 163.539062 201.28125 160.835938 196.777344 160.867188 C 192.40625 160.898438 188.804688 162.953125 186.644531 167.019531 C 185.996094 168.238281 185.351562 169.472656 184.574219 170.609375 C 182.09375 174.246094 178.664062 175.476562 175.398438 173.976562 C 171.804688 172.328125 170.253906 168.890625 171.464844 164.605469 C 174.050781 155.460938 180.226562 149.738281 189.167969 147.070312 C 202.328125 143.136719 217.21875 150.980469 221.175781 163.742188 C 221.5 164.789062 221.742188 165.859375 221.914062 166.496094 Z M 221.914062 166.496094 " fill-opacity="1" fill-rule="nonzero"/><g clip-path="url(#8c52ff87ae)"><path fill="#24c4ac" d="M 295.230469 155.015625 C 295.132812 142.671875 288.183594 133.988281 276.070312 131.40625 C 273.433594 130.84375 272.4375 129.699219 271.839844 127.351562 C 263.421875 94.363281 229.957031 72.605469 201.1875 73.308594 C 186.09375 73.675781 170.984375 73.375 155.261719 73.375 C 155.261719 63.949219 155.1875 55.089844 155.363281 46.234375 C 155.382812 45.269531 156.636719 43.988281 157.636719 43.441406 C 165.652344 39.042969 171.050781 30.050781 170.003906 21.992188 C 168.675781 11.777344 163.351562 4.4375 153.398438 1.175781 C 151.488281 0.546875 149.558594 0.214844 147.65625 0.144531 C 145.75 0.214844 143.820312 0.546875 141.910156 1.175781 C 131.957031 4.4375 126.632812 11.777344 125.304688 21.992188 C 124.257812 30.050781 129.65625 39.042969 137.671875 43.441406 C 138.671875 43.988281 139.925781 45.269531 139.945312 46.234375 C 140.121094 55.089844 140.046875 63.949219 140.046875 73.375 C 124.324219 73.375 109.214844 73.675781 94.121094 73.308594 C 65.351562 72.605469 31.886719 94.363281 23.46875 127.351562 C 22.871094 129.699219 21.875 130.84375 19.238281 131.40625 C 7.125 133.988281 0.175781 142.671875 0.078125 155.015625 C -0.00390625 165.144531 0.03125 175.273438 0.160156 185.402344 C 0.300781 196.503906 7.492188 205.679688 18.328125 208.332031 C 21.035156 208.996094 22.105469 210.175781 22.71875 212.835938 C 30.421875 246.292969 61.363281 270.878906 95.632812 270.890625 C 112.972656 270.898438 130.316406 270.921875 147.65625 270.921875 C 164.996094 270.921875 182.335938 270.898438 199.675781 270.890625 C 233.945312 270.878906 264.886719 246.292969 272.589844 212.835938 C 273.203125 210.175781 274.273438 208.996094 276.980469 208.332031 C 287.816406 205.679688 295.011719 196.503906 295.148438 185.402344 C 295.277344 175.273438 295.3125 165.144531 295.230469 155.015625 Z M 259.210938 191.484375 C 259.058594 197.519531 258.292969 203.683594 256.769531 209.519531 C 250.128906 235 229 252.90625 202.746094 254.222656 C 184.425781 255.140625 166.023438 254.40625 147.65625 254.398438 C 129.285156 254.40625 110.882812 255.140625 92.5625 254.222656 C 66.308594 252.90625 45.179688 235 38.539062 209.519531 C 37.015625 203.683594 36.25 197.519531 36.097656 191.484375 C 35.746094 177.753906 35.902344 164.007812 36.007812 150.269531 C 36.277344 115.710938 62.757812 89.417969 97.328125 89.375 C 114.101562 89.351562 130.878906 89.34375 147.65625 89.34375 C 164.429688 89.34375 181.207031 89.351562 197.980469 89.375 C 232.550781 89.417969 259.03125 115.710938 259.300781 150.269531 C 259.40625 164.007812 259.5625 177.753906 259.210938 191.484375 Z M 259.210938 191.484375 " fill-opacity="1" fill-rule="nonzero"/></g><path fill="#24c4ac" d="M 182.800781 201.269531 C 179.507812 199.835938 175.796875 200.949219 173.214844 204.144531 C 173.042969 204.359375 172.859375 204.570312 172.71875 204.804688 C 167.675781 213.210938 157.871094 218.117188 147.65625 218.367188 C 137.4375 218.117188 127.632812 213.210938 122.589844 204.804688 C 122.449219 204.570312 122.265625 204.359375 122.09375 204.144531 C 119.511719 200.949219 115.800781 199.835938 112.507812 201.269531 C 109.117188 202.746094 107.148438 206.5625 108.484375 210.664062 C 109.390625 213.457031 111.050781 216.203125 113 218.421875 C 122.195312 228.90625 134.101562 233.390625 147.65625 233.847656 C 161.207031 233.390625 173.113281 228.90625 182.308594 218.421875 C 184.257812 216.203125 185.917969 213.457031 186.828125 210.664062 C 188.160156 206.5625 186.191406 202.746094 182.800781 201.269531 Z M 182.800781 201.269531 " fill-opacity="1" fill-rule="nonzero"/><path fill="#24c4ac" d="M 120.074219 160.699219 C 120.1875 148.507812 110.796875 138.898438 98.726562 138.84375 C 87.273438 138.792969 77.648438 148.441406 77.574219 160.054688 C 77.488281 172.585938 86.425781 181.855469 98.648438 181.910156 C 110.65625 181.964844 119.964844 172.75 120.074219 160.699219 Z M 120.074219 160.699219 " fill-opacity="1" fill-rule="nonzero"/><g clip-path="url(#d90b85fd62)"><g transform="matrix(1, 0, 0, 1, 343, 97)"><g clip-path="url(#ece3ab6e43)"><g fill="#ffffff" fill-opacity="1"><g transform="translate(0.956077, 127.044812)"><g><path d="M 63.40625 -21.390625 C 63.40625 -18.347656 62.878906 -15.570312 61.828125 -13.0625 C 60.773438 -10.539062 59.253906 -8.285156 57.265625 -6.296875 C 55.378906 -4.410156 53.070312 -2.890625 50.34375 -1.734375 C 47.507812 -0.578125 44.726562 0 42 0 L 27.6875 0 C 24.957031 0 22.175781 -0.578125 19.34375 -1.734375 C 16.625 -2.890625 14.375 -4.410156 12.59375 -6.296875 C 10.695312 -8.078125 9.175781 -10.332031 8.03125 -13.0625 C 6.875 -15.894531 6.296875 -18.671875 6.296875 -21.390625 L 6.296875 -85.59375 C 6.296875 -88.3125 6.875 -91.085938 8.03125 -93.921875 C 9.175781 -96.648438 10.695312 -98.957031 12.59375 -100.84375 C 14.582031 -102.84375 16.832031 -104.363281 19.34375 -105.40625 C 21.863281 -106.457031 24.644531 -106.984375 27.6875 -106.984375 L 42 -106.984375 C 45.039062 -106.984375 47.820312 -106.457031 50.34375 -105.40625 C 51.707031 -104.882812 52.9375 -104.226562 54.03125 -103.4375 C 55.132812 -102.65625 56.210938 -101.789062 57.265625 -100.84375 C 58.210938 -99.800781 59.078125 -98.726562 59.859375 -97.625 C 60.648438 -96.519531 61.304688 -95.285156 61.828125 -93.921875 C 62.878906 -91.410156 63.40625 -88.632812 63.40625 -85.59375 L 63.40625 -71.421875 L 42 -71.421875 L 42 -85.59375 L 27.6875 -85.59375 L 27.6875 -21.390625 L 42 -21.390625 L 42 -42.796875 L 35.078125 -42.796875 L 35.078125 -64.1875 L 63.40625 -64.1875 Z M 63.40625 -21.390625 "/></g></g></g><g fill="#ffffff" fill-opacity="1"><g transform="translate(70.647836, 127.044812)"><g><path d="M 60.25 -21.390625 C 60.25 -18.347656 59.726562 -15.570312 58.6875 -13.0625 C 57.632812 -10.539062 56.113281 -8.285156 54.125 -6.296875 C 52.226562 -4.410156 49.921875 -2.890625 47.203125 -1.734375 C 44.367188 -0.578125 41.585938 0 38.859375 0 L 24.546875 0 C 21.816406 0 19.035156 -0.578125 16.203125 -1.734375 C 13.472656 -2.890625 11.21875 -4.410156 9.4375 -6.296875 C 7.550781 -8.078125 6.03125 -10.332031 4.875 -13.0625 C 3.71875 -15.894531 3.140625 -18.671875 3.140625 -21.390625 L 3.140625 -35.875 L 24.546875 -35.875 L 24.546875 -21.390625 L 38.859375 -21.390625 L 38.859375 -29.578125 L 8.65625 -63.09375 C 6.769531 -65.289062 5.40625 -67.546875 4.5625 -69.859375 C 3.613281 -72.265625 3.140625 -74.78125 3.140625 -77.40625 L 3.140625 -85.59375 C 3.140625 -88.3125 3.71875 -91.085938 4.875 -93.921875 C 6.03125 -96.648438 7.550781 -98.957031 9.4375 -100.84375 C 11.425781 -102.84375 13.679688 -104.363281 16.203125 -105.40625 C 18.722656 -106.457031 21.503906 -106.984375 24.546875 -106.984375 L 38.859375 -106.984375 C 41.898438 -106.984375 44.679688 -106.457031 47.203125 -105.40625 C 48.566406 -104.882812 49.796875 -104.226562 50.890625 -103.4375 C 51.992188 -102.65625 53.070312 -101.789062 54.125 -100.84375 C 55.0625 -99.800781 55.921875 -98.726562 56.703125 -97.625 C 57.492188 -96.519531 58.15625 -95.285156 58.6875 -93.921875 C 59.726562 -91.410156 60.25 -88.632812 60.25 -85.59375 L 60.25 -71.421875 L 38.859375 -71.421875 L 38.859375 -85.59375 L 24.546875 -85.59375 L 24.546875 -77.40625 L 54.75 -43.734375 C 56.53125 -41.535156 57.894531 -39.332031 58.84375 -37.125 C 59.78125 -34.820312 60.25 -32.304688 60.25 -29.578125 Z M 60.25 -21.390625 "/></g></g></g><g fill="#ffffff" fill-opacity="1"><g transform="translate(134.046886, 127.044812)"><g><path d="M 42.796875 -85.59375 L 42.796875 0 L 21.390625 0 L 21.390625 -85.59375 L 4.71875 -85.59375 L 4.71875 -106.984375 L 59.15625 -106.984375 L 59.15625 -85.59375 Z M 42.796875 -85.59375 "/></g></g></g><g fill="#ffffff" fill-opacity="1"><g transform="translate(197.917883, 127.044812)"><g/></g></g><g fill="#24c4ac" fill-opacity="1"><g transform="translate(235.680493, 127.044812)"><g><path d="M 63.25 -21.234375 C 63.25 -18.191406 62.722656 -15.46875 61.671875 -13.0625 C 60.617188 -10.539062 59.097656 -8.285156 57.109375 -6.296875 C 55.222656 -4.410156 52.914062 -2.890625 50.1875 -1.734375 C 47.351562 -0.578125 44.570312 0 41.84375 0 L 27.6875 0 C 24.957031 0 22.175781 -0.578125 19.34375 -1.734375 C 16.625 -2.890625 14.375 -4.410156 12.59375 -6.296875 C 10.695312 -8.078125 9.175781 -10.332031 8.03125 -13.0625 C 6.875 -15.675781 6.296875 -18.398438 6.296875 -21.234375 L 6.296875 -85.59375 C 6.296875 -88.3125 6.875 -91.085938 8.03125 -93.921875 C 9.175781 -96.648438 10.695312 -98.957031 12.59375 -100.84375 C 14.582031 -102.84375 16.832031 -104.363281 19.34375 -105.40625 C 21.863281 -106.457031 24.644531 -106.984375 27.6875 -106.984375 L 41.84375 -106.984375 C 44.882812 -106.984375 47.664062 -106.457031 50.1875 -105.40625 C 51.550781 -104.882812 52.78125 -104.226562 53.875 -103.4375 C 54.976562 -102.65625 56.054688 -101.789062 57.109375 -100.84375 C 58.054688 -99.800781 58.921875 -98.726562 59.703125 -97.625 C 60.492188 -96.519531 61.148438 -95.285156 61.671875 -93.921875 C 62.722656 -91.410156 63.25 -88.632812 63.25 -85.59375 L 63.25 -71.265625 L 41.84375 -71.265625 L 41.84375 -85.59375 L 27.6875 -85.59375 L 27.6875 -21.234375 L 41.84375 -21.234375 L 41.84375 -35.5625 L 63.25 -35.5625 Z M 63.25 -21.234375 "/></g></g></g><g fill="#24c4ac" fill-opacity="1"><g transform="translate(303.641754, 127.044812)"><g><path d="M 63.5625 -21.234375 C 63.5625 -18.191406 63.035156 -15.46875 61.984375 -13.0625 C 60.929688 -10.539062 59.410156 -8.285156 57.421875 -6.296875 C 55.535156 -4.410156 53.226562 -2.890625 50.5 -1.734375 C 47.664062 -0.578125 44.882812 0 42.15625 0 L 27.53125 0 C 24.695312 0 21.96875 -0.578125 19.34375 -1.734375 C 16.625 -2.890625 14.375 -4.410156 12.59375 -6.296875 C 10.695312 -8.078125 9.175781 -10.332031 8.03125 -13.0625 C 6.875 -15.675781 6.296875 -18.398438 6.296875 -21.234375 L 6.296875 -85.59375 C 6.296875 -88.3125 6.875 -91.085938 8.03125 -93.921875 C 9.175781 -96.648438 10.695312 -98.957031 12.59375 -100.84375 C 14.582031 -102.84375 16.832031 -104.363281 19.34375 -105.40625 C 21.757812 -106.457031 24.488281 -106.984375 27.53125 -106.984375 L 42.15625 -106.984375 C 45.195312 -106.984375 47.976562 -106.457031 50.5 -105.40625 C 51.863281 -104.882812 53.09375 -104.226562 54.1875 -103.4375 C 55.289062 -102.65625 56.367188 -101.789062 57.421875 -100.84375 C 58.367188 -99.800781 59.234375 -98.726562 60.015625 -97.625 C 60.804688 -96.519531 61.460938 -95.285156 61.984375 -93.921875 C 63.035156 -91.410156 63.5625 -88.632812 63.5625 -85.59375 Z M 27.6875 -21.234375 L 42.15625 -21.234375 L 42.15625 -85.59375 L 27.6875 -85.59375 Z M 27.6875 -21.234375 "/></g></g></g><g fill="#24c4ac" fill-opacity="1"><g transform="translate(373.490832, 127.044812)"><g><path d="M 63.25 -21.234375 C 63.25 -18.191406 62.722656 -15.46875 61.671875 -13.0625 C 60.617188 -10.539062 59.097656 -8.285156 57.109375 -6.296875 C 55.222656 -4.410156 52.914062 -2.890625 50.1875 -1.734375 C 47.351562 -0.578125 44.570312 0 41.84375 0 L 12.75 0 C 10.957031 0 9.429688 -0.628906 8.171875 -1.890625 C 6.921875 -3.148438 6.296875 -4.671875 6.296875 -6.453125 L 6.296875 -100.53125 C 6.296875 -102.3125 6.921875 -103.832031 8.171875 -105.09375 C 9.429688 -106.351562 10.957031 -106.984375 12.75 -106.984375 L 41.84375 -106.984375 C 44.882812 -106.984375 47.664062 -106.457031 50.1875 -105.40625 C 51.550781 -104.882812 52.78125 -104.226562 53.875 -103.4375 C 54.976562 -102.65625 56.054688 -101.789062 57.109375 -100.84375 C 58.054688 -99.800781 58.921875 -98.726562 59.703125 -97.625 C 60.492188 -96.519531 61.148438 -95.285156 61.671875 -93.921875 C 62.722656 -91.410156 63.25 -88.632812 63.25 -85.59375 Z M 27.6875 -21.234375 L 41.84375 -21.234375 L 41.84375 -85.59375 L 27.6875 -85.59375 Z M 27.6875 -21.234375 "/></g></g></g><g fill="#24c4ac" fill-opacity="1"><g transform="translate(443.025272, 127.044812)"><g><path d="M 56.640625 -21.390625 L 56.640625 0 L 12.75 0 C 10.957031 0 9.429688 -0.628906 8.171875 -1.890625 C 6.921875 -3.148438 6.296875 -4.671875 6.296875 -6.453125 L 6.296875 -100.53125 C 6.296875 -102.3125 6.921875 -103.832031 8.171875 -105.09375 C 9.429688 -106.351562 10.957031 -106.984375 12.75 -106.984375 L 56.640625 -106.984375 L 56.640625 -85.59375 L 27.6875 -85.59375 L 27.6875 -64.1875 L 56.640625 -64.1875 L 56.640625 -42.796875 L 27.6875 -42.796875 L 27.6875 -21.390625 Z M 56.640625 -21.390625 "/></g></g></g><g fill="#24c4ac" fill-opacity="1"><g transform="translate(505.952364, 127.044812)"><g/></g></g><g fill="#24c4ac" fill-opacity="1"><g transform="translate(543.70862, 127.044812)"><g><path d="M 52.078125 -21.390625 L 52.078125 0 L 12.75 0 C 10.957031 0 9.429688 -0.628906 8.171875 -1.890625 C 6.921875 -3.148438 6.296875 -4.671875 6.296875 -6.453125 L 6.296875 -106.984375 L 27.6875 -106.984375 L 27.6875 -21.390625 Z M 52.078125 -21.390625 "/></g></g></g><g fill="#24c4ac" fill-opacity="1"><g transform="translate(600.500333, 127.044812)"><g><path d="M 63.25 -85.75 L 63.25 0 L 41.84375 0 L 41.84375 -42.796875 L 27.6875 -42.796875 L 27.6875 0 L 6.296875 0 L 6.296875 -85.75 C 6.296875 -88.570312 6.875 -91.296875 8.03125 -93.921875 C 9.175781 -96.648438 10.695312 -98.90625 12.59375 -100.6875 C 14.375 -102.570312 16.625 -104.09375 19.34375 -105.25 C 22.175781 -106.40625 24.957031 -106.984375 27.6875 -106.984375 L 41.84375 -106.984375 C 44.570312 -106.984375 47.351562 -106.40625 50.1875 -105.25 C 52.914062 -104.195312 55.222656 -102.675781 57.109375 -100.6875 C 59.097656 -98.695312 60.617188 -96.441406 61.671875 -93.921875 C 62.722656 -91.515625 63.25 -88.789062 63.25 -85.75 Z M 27.6875 -64.1875 L 41.84375 -64.1875 L 41.84375 -85.75 L 27.6875 -85.75 Z M 27.6875 -64.1875 "/></g></g></g><g fill="#24c4ac" fill-opacity="1"><g transform="translate(670.034763, 127.044812)"><g><path d="M 63.25 -21.234375 C 63.25 -18.191406 62.722656 -15.46875 61.671875 -13.0625 C 60.617188 -10.539062 59.097656 -8.285156 57.109375 -6.296875 C 55.222656 -4.410156 52.914062 -2.890625 50.1875 -1.734375 C 47.351562 -0.578125 44.570312 0 41.84375 0 L 12.75 0 C 10.957031 0 9.429688 -0.628906 8.171875 -1.890625 C 6.921875 -3.148438 6.296875 -4.671875 6.296875 -6.453125 L 6.296875 -100.53125 C 6.296875 -102.3125 6.921875 -103.832031 8.171875 -105.09375 C 9.429688 -106.351562 10.957031 -106.984375 12.75 -106.984375 L 41.84375 -106.984375 C 44.882812 -106.984375 47.664062 -106.457031 50.1875 -105.40625 C 51.550781 -104.882812 52.78125 -104.226562 53.875 -103.4375 C 54.976562 -102.65625 56.054688 -101.789062 57.109375 -100.84375 C 58.054688 -99.800781 58.921875 -98.726562 59.703125 -97.625 C 60.492188 -96.519531 61.148438 -95.285156 61.671875 -93.921875 C 62.722656 -91.410156 63.25 -88.632812 63.25 -85.59375 L 63.25 -67.34375 C 63.25 -63.976562 62.460938 -61.09375 60.890625 -58.6875 C 59.210938 -56.164062 56.691406 -54.429688 53.328125 -53.484375 C 56.367188 -52.335938 58.785156 -50.554688 60.578125 -48.140625 C 62.359375 -45.734375 63.25 -42.847656 63.25 -39.484375 Z M 27.6875 -21.234375 L 41.84375 -21.234375 L 41.84375 -42.640625 L 27.6875 -42.640625 Z M 27.6875 -64.1875 L 41.84375 -64.1875 L 41.84375 -85.59375 L 27.6875 -85.59375 Z M 27.6875 -64.1875 "/></g></g></g></g></g></g></g></g></g></svg>